<?xml version="1.0" encoding="utf-8"?>
<!-- Generator: Adobe Illustrator 23.0.3, SVG Export Plug-In . SVG Version: 6.00 Build 0)  -->
<svg version="1.1" id="Layer_1" xmlns="http://www.w3.org/2000/svg" xmlns:xlink="http://www.w3.org/1999/xlink" x="0px" y="0px"
	 viewBox="0 0 348 348" style="enable-background:new 0 0 348 348;" xml:space="preserve">
<style type="text/css">
	.st0{fill-rule:evenodd;clip-rule:evenodd;fill:#595959;}
	.st1{fill-rule:evenodd;clip-rule:evenodd;fill:#00040D;}
</style>
<title>logo</title>
<polygon class="st0" points="129.2,115.2 129.2,265.4 86.7,265.4 86.7,82.6 213.5,82.6 213.5,115.2 129.2,115.2 "/>
<path class="st1" d="M300,265.4H190.8c-17.8,0-29.8-3-36-9.1c-6.2-6.1-9.3-17.4-9.3-34.2v-96.4c0-2.1,0.1-4.2,0.2-6.1H188v111.4
	h114.8v-26.1h42.5v17.3c0,16.7-3.2,28.1-9.5,34.2C329.6,262.4,317.6,265.4,300,265.4z M345.3,143.1h-42.5v-27.9H218V82.6h82
	c17.7,0,29.6,3.1,35.9,9.2c6.3,6.1,9.5,17.5,9.5,34V143.1L345.3,143.1z M77.3,115.2H2.7V82.6h74.7L77.3,115.2L77.3,115.2z"/>
</svg>
