<?xml version="1.0" standalone="no"?>
<!DOCTYPE svg PUBLIC "-//W3C//DTD SVG 20010904//EN"
 "http://www.w3.org/TR/2001/REC-SVG-20010904/DTD/svg10.dtd">
<svg version="1.0" xmlns="http://www.w3.org/2000/svg"
 width="700.000000pt" height="700.000000pt" viewBox="0 0 700.000000 700.000000"
 preserveAspectRatio="xMidYMid meet">
<metadata>
Created by potrace 1.14, written by Peter Selinger 2001-2017
</metadata>
<g transform="translate(0.000000,700.000000) scale(0.100000,-0.100000)"
fill="#000000" stroke="none">
<path d="M55 5327 c-3 -7 -4 -154 -3 -327 l3 -315 746 -3 746 -2 7 52 c3 29 6
178 6 331 l0 277 -750 0 c-594 0 -752 -3 -755 -13z"/>
<path d="M1750 3500 l0 -1840 423 2 422 3 3 1513 2 1512 845 0 845 0 0 325 0
325 -1270 0 -1270 0 0 -1840z"/>
<path d="M4390 5011 l0 -331 850 0 850 0 0 -280 0 -280 431 0 432 0 -6 278
c-3 183 -10 308 -21 367 -61 356 -205 492 -588 556 -53 9 -327 14 -1010 16
l-938 4 0 -330z"/>
<path d="M2930 3483 c0 -746 4 -1137 11 -1198 41 -337 156 -492 419 -568 182
-52 167 -52 1575 -52 1408 0 1393 0 1575 52 216 62 321 167 383 383 39 135 50
245 51 520 l1 255 -427 3 -428 2 0 -265 0 -265 -1155 0 -1155 0 0 1120 0 1120
-425 0 -425 0 0 -1107z"/>
</g>
</svg>
